<svg xmlns="http://www.w3.org/2000/svg" width="192" height="192" viewBox="0 0 192 192" fill="none">
  <rect width="192" height="192" rx="30" fill="#F2F9FF"/>
  <path d="M60.2798 139.6C54.6798 139.6 49.4398 138.48 44.5598 136.24C39.6798 134 35.3598 130.92 31.5998 127C27.9198 123 25.0398 118.36 22.9598 113.08C20.8798 107.8 19.8398 102.08 19.8398 95.92C19.8398 90.08 20.8798 84.6 22.9598 79.48C25.0398 74.28 27.9598 69.72 31.7198 65.8C35.4798 61.88 39.8798 58.8 44.9198 56.56C49.9598 54.32 55.4398 53.2 61.3598 53.2C69.2798 53.2 76.1198 54.92 81.8798 58.36C87.6398 61.72 91.9598 66.2 94.8398 71.8L82.4798 80.92C80.3198 76.76 77.2798 73.56 73.3598 71.32C69.5198 69 65.3198 67.84 60.7598 67.84C55.9598 67.84 51.7198 69.16 48.0398 71.8C44.4398 74.44 41.5998 77.92 39.5198 82.24C37.5198 86.56 36.5198 91.28 36.5198 96.4C36.5198 101.76 37.5998 106.6 39.7598 110.92C41.9198 115.24 44.8798 118.68 48.6398 121.24C52.4798 123.72 56.8398 124.96 61.7198 124.96C69.9598 124.96 77.3998 121.08 84.0398 113.32V107.32H66.8798V95.2H97.7198V139H84.0398V129.4C77.1598 136.2 69.2398 139.6 60.2798 139.6Z" fill="#1E90FF"/>
  <path d="M162.593 76.12C161.873 75.32 160.353 74.28 158.033 73C155.713 71.64 152.913 70.44 149.633 69.4C146.433 68.28 143.113 67.72 139.673 67.72C130.633 67.72 126.113 70.92 126.113 77.32C126.113 79.64 126.833 81.48 128.273 82.84C129.713 84.2 131.873 85.36 134.753 86.32C137.633 87.28 141.233 88.32 145.553 89.44C151.153 90.88 155.993 92.56 160.073 94.48C164.233 96.4 167.393 98.96 169.553 102.16C171.793 105.28 172.913 109.44 172.913 114.64C172.913 120.72 171.433 125.64 168.473 129.4C165.593 133.08 161.753 135.76 156.953 137.44C152.153 139.12 146.953 139.96 141.353 139.96C134.953 139.96 128.593 139 122.273 137.08C116.033 135.08 110.473 132.36 105.593 128.92L112.913 114.64C113.633 115.36 114.913 116.32 116.753 117.52C118.593 118.64 120.833 119.8 123.473 121C126.113 122.12 128.993 123.08 132.113 123.88C135.233 124.68 138.393 125.08 141.593 125.08C150.713 125.08 155.273 122.16 155.273 116.32C155.273 113.84 154.353 111.84 152.513 110.32C150.673 108.8 148.073 107.52 144.713 106.48C141.433 105.44 137.593 104.28 133.193 103C127.753 101.48 123.233 99.8 119.633 97.96C116.113 96.04 113.473 93.68 111.713 90.88C109.953 88 109.073 84.36 109.073 79.96C109.073 74.12 110.433 69.24 113.153 65.32C115.953 61.32 119.713 58.32 124.433 56.32C129.153 54.24 134.393 53.2 140.153 53.2C146.073 53.2 151.593 54.16 156.713 56.08C161.833 58 166.233 60.2 169.913 62.68L162.593 76.12Z" fill="#1E90FF"/>
</svg>